<svg width="1201" height="2047" viewBox="0 0 1201 2047" fill="none" xmlns="http://www.w3.org/2000/svg">
<path d="M1090.46 772.779C1097.46 790.573 1105.98 807.731 1115.92 824.062C1130.57 842.502 1146.32 860.029 1163.1 876.546C1169.99 883.743 1178.08 889.592 1184.52 897.089C1212.38 930.379 1204.29 960.369 1162.35 976.864C1145.73 983.462 1127.91 987.061 1107.99 992.759C1122.96 1032.8 1137.94 1073.43 1115.02 1117.52L1038.19 1054.09C1025.61 1100.12 1029.35 1138.51 1059.76 1172.1C1042.08 1205.09 1042.08 1205.09 1009.73 1209.44L991.311 1256.97L924.062 1216.64C925.41 1252.18 932.899 1286.22 910.133 1320.55C898.301 1308.11 887.517 1297.46 877.482 1285.92C861.606 1267.47 854.866 1268.82 844.831 1289.81C836.444 1307.06 824.761 1322.65 809.784 1346.65C790.912 1316.66 777.133 1294.31 762.006 1272.57C755.204 1264.46 747.685 1256.98 739.539 1250.23C734.032 1261.1 730.338 1272.8 728.606 1284.87C730.671 1333.82 718.216 1382.29 692.81 1424.17C690.063 1427.28 687.001 1430.09 683.673 1432.57C621.816 1373.94 656.115 1294.31 635.596 1226.08C623.763 1298.36 605.641 1364.94 521.168 1394.93C539.141 1328.2 552.471 1263.72 517.723 1199.09C506.19 1192.8 490.913 1225.33 478.182 1200.89C471.984 1185.93 467.22 1170.42 463.954 1154.56C420.519 1180.35 378.582 1205.09 322.416 1199.54C317.324 1237.03 306.241 1276.02 307.439 1314.56C312.382 1452.36 322.417 1590.17 329.156 1727.98C332.751 1794.85 335.597 1861.73 338.742 1928.61C340.389 1963.25 342.936 1997.89 343.685 2032.53C343.685 2039.58 339.341 2047.52 333.949 2046.02C324.663 2046.02 323.914 2040.33 323.615 2033.28C320.469 1951.55 320.32 1869.68 315.227 1787.96C308.188 1675.04 304.593 1561.23 286.171 1450.11C271.193 1364.34 286.171 1282.92 295.457 1200.14C302.456 1161.22 312.166 1122.84 324.513 1085.28C322.716 1085.28 316.276 1087.23 309.536 1089.03C293.887 1094.34 277.932 1098.69 261.758 1102.07C219.821 1108.52 218.173 1107.77 216.825 1149.31C214.878 1267.62 215.328 1385.93 213.081 1504.1C209.786 1675.49 226.86 1845.69 236.596 2016.33C236.596 2021.13 236.596 2025.93 236.596 2031.33C215.178 2033.73 215.477 2019.18 214.728 2006.59C210.685 1939.11 205.742 1871.63 203.645 1804.15C200.799 1709.98 200.799 1615.96 198.403 1521.79C196.156 1431.07 187.919 1340.2 190.465 1249.63C193.011 1159.06 203.945 1068.63 214.728 978.513C218.023 950.772 232.701 924.381 243.036 894.54C183.126 898.589 118.573 922.431 80.5302 851.354L143.436 815.365C157.514 806.968 175.188 802.469 172.043 778.777C171.144 772.029 182.826 763.782 191.214 752.685C182.377 747.737 172.642 742.638 163.206 737.69C138.343 722.695 137.445 709.049 160.21 690.455C165.153 686.406 170.545 682.657 181.778 674.26L73.4908 633.023C86.2815 621.485 98.2432 609.058 109.287 595.835C111.895 591.936 113.621 587.514 114.346 582.878C115.07 578.242 114.775 573.504 113.481 568.994C102.996 545.301 104.494 539.903 130.555 532.705C137.544 531.282 143.895 527.656 148.678 522.359C143.286 520.559 137.594 519.06 132.352 516.81C118.7 511.842 105.558 505.565 93.1112 498.066C74.3894 484.87 76.4862 473.174 97.4547 464.627C120.679 456.194 143.171 445.863 164.704 433.737C152.915 429.256 140.796 425.696 128.458 423.09C91.7633 417.692 54.9187 414.243 18.3736 408.095C11.6338 407.045 0.400668 398.798 0.849993 395.049C1.57461 390.867 3.17751 386.887 5.55285 383.371C7.9282 379.856 11.0219 376.885 14.6292 374.655C29.9136 366.548 45.8445 359.727 62.2576 354.262C79.0324 348.414 96.4062 344.065 116.027 338.367C97.6044 313.025 79.4818 290.082 63.9052 265.64C48.3286 241.198 52.9716 231.451 81.5786 228.452C102.863 227.798 124.156 229.457 145.083 233.4C152.557 234.732 159.918 236.637 167.1 239.099C162.607 220.205 158.263 204.16 155.268 187.815C154.369 183.616 156.616 174.919 158.713 174.469C196.306 167.121 179.531 143.429 172.192 118.537L248.128 99.343C268.198 73.2513 272.691 72.6515 308.038 92.5951C323.016 100.843 337.993 107.59 356.565 116.438C353.57 86.4471 328.108 63.8043 341.588 28.8654L427.558 99.6429L451.223 78.1997L474.588 93.195L514.128 0.374512C532.454 13.0394 547.748 29.6133 558.91 48.9041C570.071 68.1949 576.824 89.7228 578.681 111.939C578.681 115.238 578.681 119.137 578.681 121.686C583.174 129.333 588.417 136.681 593.659 143.729C598.302 135.631 606.539 127.684 606.989 119.137C606.947 103.592 605.494 88.0827 602.645 72.8014L608.636 68.7527L665.101 147.628C666.863 147.494 668.615 147.244 670.343 146.878C684.272 142.379 702.695 129.933 711.382 134.732C722.194 140.069 731.27 148.371 737.554 158.671C743.838 168.971 747.072 180.845 746.878 192.913C746.878 203.71 745.68 214.356 744.931 227.552L767.098 220.055L778.78 251.695L868.645 184.666L881.975 321.572L937.242 318.123L930.502 382.603C955.964 388.301 979.778 394.449 1003.74 398.798C1019.62 401.497 1022.16 408.545 1017.67 422.94C1013.35 439.465 1005.76 454.952 995.335 468.476C984.914 482.001 971.881 493.288 957.012 501.665L968.246 548C990.412 566.145 1011.98 585.038 1035.04 602.283C1050.92 614.129 1068.89 623.276 1088.51 635.423C1088.51 631.974 1088.51 634.073 1088.51 635.423C1066.8 661.364 1067.25 660.765 1094.36 680.408C1106.75 688.457 1117.64 698.605 1126.56 710.399C1128.3 714.77 1128.99 719.492 1128.58 724.181C1128.16 728.87 1126.65 733.395 1124.16 737.39C1113.87 750.055 1102.61 761.888 1090.46 772.779V772.779ZM865.799 716.547H868.945C866.848 682.058 871.791 645.319 861.007 613.979C845.954 573.807 824.84 536.182 798.401 502.415C772.959 466.117 742.094 433.952 706.888 407.045C656.265 370.757 594.707 360.71 532.85 359.06C522.208 357.946 511.531 360.832 502.895 367.158C481.178 391.3 454.967 414.993 442.985 443.933C420.313 504.141 419.359 570.387 440.289 631.224C446.879 652.367 457.513 672.161 465.152 693.004C496.754 778.927 537.493 857.952 606.09 922.281C658.511 971.616 715.126 967.267 774.886 952.272C791.032 948.194 804.919 937.901 813.528 923.631C837.642 871.747 867.597 821.213 867.447 761.233C867.447 746.237 866.249 731.392 865.5 716.547H865.799ZM464.403 756.584C458.861 776.977 454.668 792.573 450.324 808.018C447.641 820.762 441.242 832.423 431.938 841.525C422.633 850.627 410.841 856.761 398.053 859.151C361.508 864.85 344.883 889.142 330.355 917.633C313.43 950.472 298.453 984.661 280.929 1017.2C269.995 1037.59 255.767 1056.19 242.886 1075.53L245.582 1081.08C290.514 1066.09 337.094 1054.09 380.379 1035.2C433.1 1012.25 455.267 963.218 461.108 910.135C464.852 874.297 469.346 842.207 497.353 817.165L464.403 756.584ZM1185.42 927.83C1159.21 905.937 1135.99 883.893 1110.53 865.749C1092.02 851.158 1070.47 840.91 1047.48 835.759C994.606 828.411 940.986 827.212 887.517 824.212C870.592 823.313 868.945 832.76 878.53 844.306C892.988 863.086 908.969 880.64 926.309 896.789C974.985 937.876 1035.34 950.922 1095.85 963.668C1112.61 967.451 1130.11 966.049 1146.05 959.649C1161.99 953.25 1175.62 942.153 1185.12 927.83H1185.42ZM421.567 434.936C424.42 420.982 425.228 406.687 423.964 392.5C395.656 294.281 281.528 182.567 167.25 181.217C169.943 193.194 174.014 204.818 179.382 215.856C203.046 251.395 226.561 287.383 253.37 320.823C267.568 335.32 284.131 347.288 302.347 356.211C328.108 371.207 355.517 384.852 381.278 401.197C395.658 411.438 409.273 422.715 422.017 434.936H421.567ZM119.472 353.962C121.593 359.31 124.413 364.352 127.859 368.957C162.906 401.197 195.258 437.635 234.499 464.027C281.014 492.986 334.453 508.887 389.216 510.062C395.357 510.062 407.039 504.364 407.489 500.316C410.581 485.866 409.754 470.851 405.092 456.829C399.101 444.683 383.225 437.785 372.142 428.188C345.032 404.496 317.773 384.402 278.083 385.302C234.648 386.202 190.914 382.903 151.523 359.06C141.342 355.627 130.664 353.904 119.921 353.962H119.472ZM799.449 1309.76L810.383 1307.96C815.751 1290.9 820.25 1273.59 823.862 1256.08C830.303 1218.89 835.845 1181.1 839.888 1143.91C841.3 1130.11 839.821 1116.17 835.545 1102.97C825.96 1074.03 813.828 1045.99 802.744 1017.5C787.767 976.714 787.767 976.714 743.883 983.162C742.385 983.162 739.839 983.162 739.09 983.162C734.597 988.41 726.209 994.408 726.659 999.357C729.654 1026.95 731.751 1054.24 756.614 1075.23C768.208 1086.45 775.068 1101.69 775.785 1117.82C774.066 1142.2 770.207 1166.39 764.252 1190.1C762.455 1199.54 756.464 1210.64 759.459 1218.29C771.292 1249.63 786.119 1279.47 799.899 1309.76H799.449ZM137.445 554.898C139.564 557.555 141.92 560.015 144.484 562.246C186.242 591.918 233.824 612.364 284.074 622.227C329.007 631.074 365.701 629.724 398.502 593.136C403.16 587.613 406.2 580.907 407.284 573.761C408.368 566.614 407.454 559.307 404.643 552.649C403.594 548 389.665 545.901 381.428 542.902C373.19 539.903 361.358 535.854 351.473 532.705C312.082 520.709 272.841 507.063 231.653 522.808C200.65 534.055 170.245 543.052 137.445 554.898ZM352.222 1176.9L355.367 1179.75C361.178 1176.8 367.183 1174.24 373.34 1172.1C459.91 1144.96 503.944 1080.18 523.115 997.257C530.22 958.399 532.834 918.851 530.903 879.395C530.903 865.449 518.921 851.504 512.481 837.558L504.543 839.508C500.562 849.903 497.554 860.646 495.556 871.597C490.227 935.29 463.023 995.167 418.572 1041.04C410.964 1051.64 405.611 1063.68 402.846 1076.43C398.754 1093.88 393.449 1111.01 386.969 1127.72C376.671 1144.98 365.054 1161.43 352.222 1176.9V1176.9ZM230.904 804.269C259.511 812.366 279.731 817.615 299.801 823.913C316.276 829.011 332.002 837.258 348.777 840.857C365.468 844.723 382.998 842.266 397.987 833.959C412.977 825.653 424.364 812.085 429.955 795.871C438.241 774.558 445.439 752.837 451.522 730.792C452.615 725.939 452.527 720.895 451.265 716.084C450.003 711.272 447.605 706.835 444.272 703.145C440.94 699.456 436.77 696.623 432.115 694.884C427.46 693.145 422.456 692.552 417.524 693.154C396.508 697.337 376.287 704.827 357.614 715.347C315.527 743.088 274.788 773.379 230.904 804.269V804.269ZM489.715 350.663C463.804 305.677 437.294 264.591 417.524 221.404C393.11 168.171 362.107 124.385 303.545 106.391C303.545 106.391 302.197 105.491 301.448 105.341L281.079 102.042C279.88 110.29 275.387 119.886 278.233 126.484C285.665 141.967 294.017 156.989 303.245 171.47C315.377 193.213 322.716 220.055 340.24 235.8C375.695 266.821 403.831 305.335 422.616 348.564C432.201 370.907 446.73 371.207 464.253 365.358C473.266 361.435 481.807 356.505 489.715 350.663ZM711.382 1253.53C725.83 1222.9 738.483 1191.46 749.275 1159.36C752.392 1142.62 749.863 1125.31 742.086 1110.17C725.011 1074.78 701.646 1042.39 685.471 1006.55C677.083 988.11 667.048 984.212 645.481 985.111C651.322 1077.33 647.128 1170.15 711.382 1253.53V1253.53ZM914.027 359.06C909.384 352.163 904.741 339.267 900.098 339.267C844.232 339.267 791.811 349.164 753.918 396.099C745.231 406.895 746.429 413.343 755.865 423.09C772.375 440.052 787.926 457.924 802.445 476.623C811.132 487.719 818.171 494.467 832.4 484.72C876.284 454.58 912.679 420.391 914.027 359.06V359.06ZM889.015 683.707C882.724 715.797 886.618 725.244 916.573 742.788C933.647 752.835 950.872 763.032 968.695 771.429C993.059 781.082 1020.19 781.02 1044.51 771.258C1068.83 761.496 1088.49 742.776 1099.45 718.946C1100.16 716.033 1100.21 712.996 1099.58 710.062C1098.96 707.129 1097.69 704.373 1095.85 702.001C1076.08 679.508 1053.77 676.959 1025.76 688.806C1012.1 694.646 997.306 697.312 982.474 696.603C952.22 694.204 922.265 688.356 889.015 683.707V683.707ZM518.921 26.6162C484.623 93.3449 499.301 298.78 540.189 325.471C577.783 181.517 584.073 90.3459 518.921 26.6162ZM564.902 917.933C562.506 967.267 556.664 1011.05 532.401 1050.19C530.154 1053.79 534.947 1063.39 538.691 1068.63C562.855 1101.92 587.368 1134.96 612.231 1167.75C619.27 1177.05 627.208 1185.6 634.997 1194.44L641.137 1191.6C640.089 1174.8 639.939 1158.01 637.842 1141.51C633.499 1107.32 624.962 1073.43 623.913 1039.24C624.324 1015.8 619.192 992.587 608.937 971.504C598.681 950.422 583.593 932.065 564.902 917.933V917.933ZM854.267 898.289L844.681 900.988C844.681 915.983 839.289 934.877 845.58 946.873C865.408 984.59 887.933 1020.82 912.979 1055.29C937.982 1088.33 970.549 1114.86 1007.94 1132.66C995.205 1025.15 923.912 962.019 854.267 897.839V898.289ZM430.853 678.009C426.061 654.017 418.422 642.02 395.956 651.018C390.351 652.234 384.608 652.688 378.882 652.367C338.742 656.416 298.153 658.365 259.062 665.413C225.962 671.261 199.152 691.655 166.95 716.997C192.522 726.062 218.634 733.524 245.133 739.339C261.211 742.712 277.962 740.324 292.461 732.592C333.2 702.451 373.64 673.36 430.853 678.009ZM627.208 126.184C619.72 176.269 611.332 225.303 605.191 274.637C602.674 292.398 603.641 310.48 608.037 327.87C614.477 349.913 641.287 356.961 652.969 340.916C665.081 325.452 673.438 307.383 677.383 288.133C684.572 226.203 662.106 172.67 627.208 125.885V126.184ZM1054.22 644.27C1035.04 630.474 1018.72 618.478 1002.24 606.932C982.025 592.986 961.506 575.292 934.996 586.538C916.526 596.428 898.893 607.813 882.275 620.577C887.667 631.074 890.812 649.368 900.098 653.417C927.589 666.155 956.812 674.745 986.817 678.909C1000.14 679.625 1013.42 676.764 1025.27 670.621C1037.11 664.478 1047.11 655.277 1054.22 643.97V644.27ZM256.366 367.308L258.762 361.01C238.685 340.636 220.72 318.279 205.143 294.281C184.923 256.043 148.079 256.793 115.278 248.246C103.745 245.097 83.5256 251.395 91.4637 265.94C105.714 293.836 125.248 318.69 148.977 339.117C166.8 353.062 195.108 354.112 218.772 360.56C231.054 363.109 243.934 365.058 256.366 367.308ZM804.092 965.768C822.831 983.25 837.941 1004.26 848.555 1027.6C859.17 1050.94 865.081 1076.14 865.949 1101.77C865.774 1107.48 867.514 1113.07 870.892 1117.67C903.643 1149.96 936.943 1181.8 970.792 1213.19C973.787 1216.04 981.126 1214.39 985.769 1214.84C985.769 1208.99 987.716 1201.19 984.87 1197.74C950.871 1158.01 934.995 1106.42 896.054 1068.93C871.94 1045.69 858.46 1011.65 840.487 982.262C834.047 971.915 828.805 960.969 822.065 948.523L804.092 965.768ZM722.615 393.1C793.758 331.169 772.939 296.68 754.517 245.397C733.734 257.422 714.126 271.38 695.955 287.083C667.647 316.924 682.625 374.505 722.615 393.1ZM578.531 1315.76C587.818 1289.81 596.355 1263.72 606.539 1238.23C610.679 1228.99 611.793 1218.68 609.721 1208.77C607.649 1198.85 602.499 1189.85 595.007 1183.05C577.27 1160.43 560.866 1136.8 545.881 1112.27C537.343 1186.65 556.664 1249.78 578.531 1315.31V1315.76ZM823.862 510.362C838.091 531.805 851.721 554.148 867.597 574.992C870.465 577.494 873.925 579.221 877.647 580.009C881.369 580.796 885.231 580.618 888.865 579.49C905.76 567.822 921.463 554.512 935.744 539.753C937.586 536.589 938.557 532.993 938.557 529.331C938.557 525.669 937.586 522.073 935.744 518.91C899.948 479.172 874.037 468.076 823.862 509.912V510.362ZM787.467 340.316C804.49 335.032 821.855 330.924 839.439 328.02C857.712 326.071 864.901 316.624 863.403 300.729C861.007 273.438 856.513 246.446 852.919 219.455C832.4 231.901 814.427 241.648 797.951 253.344C790.998 258.4 786.316 265.997 784.921 274.487C784.172 296.38 786.569 318.123 787.467 340.316ZM494.358 323.822C482.975 226.053 435.646 147.478 367.948 79.6992C395.806 168.171 444.932 246.296 494.508 323.822H494.358ZM308.188 854.353C245.732 815.665 184.024 818.364 111.084 860.651C179.981 906.236 243.186 854.653 308.188 854.353ZM1009.43 965.318C1027.26 995.308 1024.41 1031.3 1062 1040.29C1066.65 1041.49 1069.49 1048.69 1073.54 1052.74C1084.32 1064.29 1095.25 1075.53 1106.19 1086.93L1115.32 1083.03C1108.73 1055.89 1102.74 1028.45 1095.25 1001.46C1094.28 997.956 1092.6 994.697 1090.3 991.883C1088.01 989.07 1085.16 986.764 1081.92 985.111C1059.76 977.914 1036.84 972.815 1009.28 965.318H1009.43ZM684.572 1391.33C729.504 1327.9 696.854 1241.38 655.815 1225.19C663.304 1280.52 656.265 1337.8 684.422 1391.33H684.572ZM945.929 491.618C965.849 470.025 994.157 456.979 998.35 424.74C924.811 403.146 930.203 397.598 899.199 456.679L945.929 491.618ZM111.384 483.071C134.599 495.367 156.316 506.913 177.884 518.16C179.681 519.059 182.677 518.16 185.073 516.96L248.278 496.567C188.368 453.081 158.413 450.531 111.384 483.071ZM731.302 208.658L736.544 207.009C733.209 193.243 728.178 179.945 721.566 167.421C718.361 163.512 714.269 160.425 709.633 158.417C704.996 156.409 699.947 155.537 694.906 155.875C691.372 156.226 687.989 157.49 685.088 159.544C682.188 161.597 679.869 164.368 678.36 167.587C676.85 170.807 676.201 174.363 676.476 177.909C676.751 181.454 677.941 184.868 679.929 187.815C687.118 204.01 686.669 223.354 692.211 240.298C694.757 248.546 704.642 261.591 708.985 260.692C721.866 258.142 736.694 252.744 732.5 233.1C731.582 225.037 731.182 216.923 731.302 208.808V208.658ZM253.969 638.721C227.01 627.475 201.848 617.878 177.584 606.482C139.092 588.637 139.242 588.188 110.186 615.479C108.766 617.61 107.656 619.933 106.89 622.377C154.669 633.023 198.103 669.012 253.969 638.721ZM868.795 1156.96C858.311 1220.99 865.8 1276.92 904.741 1288.31C899.649 1242.73 916.723 1192.8 868.795 1156.96ZM304.743 883.444C265.951 894.09 218.772 995.158 237.344 1048.39C259.96 992.909 282.427 937.876 304.743 883.444ZM288.567 201.161C288.567 193.213 290.065 191.264 289.466 190.214C279.132 174.319 268.797 158.424 258.313 142.529C242.437 118.087 216.676 116.138 194.509 138.331C210.385 181.517 261.159 169.221 288.567 201.161ZM14.4794 381.103L15.6777 394.899L123.665 411.094L127.11 402.097C115.727 389.051 104.794 365.208 93.1112 364.759C67.0504 364.459 40.69 375.405 14.4794 381.553V381.103ZM516.225 1091.43C477.134 1116.92 468.147 1150.36 491.812 1183.2C522.066 1171.35 534.348 1125.32 516.225 1091.88V1091.43ZM599.5 163.223H593.808C584.672 215.556 574.637 268.189 566.699 320.223C564.003 338.217 578.382 335.218 589.765 333.868C586.793 320.53 585.336 306.898 585.421 293.231C589.315 258.142 595.905 223.204 600.399 188.265C600.799 180.057 600.499 171.829 599.5 163.673V163.223ZM954.466 950.022L1014.38 1059.64C1016.62 1000.71 988.914 953.021 954.466 950.472V950.022ZM1029.35 795.272C974.835 801.42 935.145 767.081 891.261 743.388C884.072 778.927 967.946 811.167 1028.75 795.722L1029.35 795.272ZM188.368 789.124C216.376 812.366 210.834 804.119 247.379 763.182C219.971 752.985 203.346 765.431 188.368 789.124ZM385.172 1077.63L372.441 1070.43L329.456 1148.41L341.887 1155.16L385.172 1077.63ZM472.94 167.271L479.68 164.722C478.537 150.113 475.978 135.65 472.042 121.536C470.094 116.288 458.112 114.788 450.773 111.489C449.575 119.886 444.633 130.233 447.778 136.381C454.914 147.639 463.361 158.008 472.94 167.271V167.271ZM1043.43 1176L985.47 1153.21C1003.59 1190.55 1015.87 1195.79 1043.73 1176H1043.43ZM1043.43 799.62L1082.82 818.064C1073.99 787.774 1068.89 785.525 1043.43 799.62V799.62Z" fill="#F5F5F5"/>
</svg>
