<svg fill="none" height="2047" viewBox="0 0 1201 2047" width="1201" xmlns="http://www.w3.org/2000/svg"><path d="m1090.46 772.779c7 17.794 15.52 34.952 25.46 51.283 14.65 18.44 30.4 35.967 47.18 52.484 6.89 7.197 14.98 13.046 21.42 20.543 27.86 33.29 19.77 63.28-22.17 79.775-16.62 6.598-34.44 10.197-54.36 15.895 14.97 40.041 29.95 80.671 7.03 124.761l-76.83-63.43c-12.58 46.03-8.84 84.42 21.57 118.01-17.68 32.99-17.68 32.99-50.03 37.34l-18.419 47.53-67.249-40.33c1.348 35.54 8.837 69.58-13.929 103.91-11.832-12.44-22.616-23.09-32.651-34.63-15.876-18.45-22.616-17.1-32.651 3.89-8.387 17.25-20.07 32.84-35.047 56.84-18.872-29.99-32.651-52.34-47.778-74.08-6.802-8.11-14.321-15.59-22.467-22.34-5.507 10.87-9.201 22.57-10.933 34.64 2.065 48.95-10.39 97.42-35.796 139.3-2.747 3.11-5.809 5.92-9.137 8.4-61.857-58.63-27.558-138.26-48.077-206.49-11.833 72.28-29.955 138.86-114.428 168.85 17.973-66.73 31.303-131.21-3.445-195.84-11.533-6.29-26.81 26.24-39.541 1.8-6.198-14.96-10.962-30.47-14.228-46.33-43.435 25.79-85.372 50.53-141.538 44.98-5.092 37.49-16.175 76.48-14.977 115.02 4.943 137.8 14.978 275.61 21.717 413.42 3.595 66.87 6.441 133.75 9.586 200.63 1.647 34.64 4.194 69.28 4.943 103.92 0 7.05-4.344 14.99-9.736 13.49-9.286 0-10.035-5.69-10.334-12.74-3.146-81.73-3.295-163.6-8.388-245.32-7.039-112.92-10.634-226.73-29.056-337.85-14.978-85.77 0-167.19 9.286-249.97 6.999-38.92 16.709-77.3 29.056-114.86-1.797 0-8.237 1.95-14.977 3.75-15.649 5.31-31.604 9.66-47.778 13.04-41.937 6.45-43.585 5.7-44.933 47.24-1.947 118.31-1.497 236.62-3.744 354.79-3.295 171.39 13.779 341.59 23.515 512.23v15c-21.418 2.4-21.119-12.15-21.868-24.74-4.043-67.48-8.986-134.96-11.083-202.44-2.846-94.17-2.846-188.19-5.242-282.36-2.247-90.72-10.484-181.59-7.938-272.16s13.48-181 24.263-271.117c3.295-27.741 17.973-54.132 28.308-83.973-59.91 4.049-124.463 27.891-162.5058-43.186l62.9058-35.989c14.078-8.397 31.752-12.896 28.607-36.588-.899-6.748 10.783-14.995 19.171-26.092-8.837-4.948-18.572-10.047-28.008-14.995-24.863-14.995-25.761-28.641-2.996-47.235 4.943-4.049 10.335-7.798 21.568-16.195l-108.2872-41.237c12.7907-11.538 24.7524-23.965 35.7962-37.188 2.608-3.899 4.334-8.321 5.059-12.957.724-4.636.429-9.374-.865-13.884-10.485-23.693-8.987-29.091 17.074-36.289 6.989-1.423 13.34-5.049 18.123-10.346-5.392-1.8-11.084-3.299-16.326-5.549-13.652-4.968-26.794-11.245-39.2408-18.744-18.7218-13.196-16.625-24.892 4.3435-33.439 23.2243-8.433 45.7163-18.764 67.2493-30.89-11.789-4.481-23.908-8.041-36.246-10.647-36.6947-5.398-73.5393-8.847-110.0844-14.995-6.7398-1.05-17.972932-9.297-17.523607-13.046.724617-4.182 2.327517-8.162 4.702857-11.678 2.37535-3.515 5.46905-6.486 9.07635-8.716 15.2844-8.107 31.2153-14.928 47.6284-20.393 16.7748-5.848 34.1486-10.197 53.7694-15.895-18.4226-25.342-36.5452-48.285-52.1218-72.727s-10.9336-34.189 17.6734-37.188c21.2844-.654 42.5774 1.005 63.5044 4.948 7.474 1.332 14.835 3.237 22.017 5.699-4.493-18.894-8.837-34.939-11.832-51.284-.899-4.199 1.348-12.896 3.445-13.346 37.593-7.348 20.818-31.04 13.479-55.932l75.936-19.194c20.07-26.0917 24.563-26.6915 59.91-6.7479 14.978 8.2479 29.955 14.9949 48.527 23.8429-2.995-29.9909-28.457-52.6337-14.977-87.5726l85.97 70.7775 23.665-21.4432 23.365 14.9953 39.54-92.820488c18.326 12.664888 33.62 29.238788 44.782 48.529588 11.161 19.2908 17.914 40.8187 19.771 63.0349v9.747c4.493 7.647 9.736 14.995 14.978 22.043 4.643-8.098 12.88-16.045 13.33-24.592-.042-15.545-1.495-31.0543-4.344-46.3356l5.991-4.0487 56.465 78.8753c1.762-.134 3.514-.384 5.242-.75 13.929-4.499 32.352-16.945 41.039-12.146 10.812 5.337 19.888 13.639 26.172 23.939s9.518 22.174 9.324 34.242c0 10.797-1.198 21.443-1.947 34.639l22.167-7.497 11.682 31.64 89.865-67.029 13.33 136.906 55.267-3.449-6.74 64.48c25.462 5.698 49.276 11.846 73.238 16.195 15.88 2.699 18.42 9.747 13.93 24.142-4.32 16.525-11.91 32.012-22.335 45.536-10.421 13.525-23.454 24.812-38.323 33.189l11.234 46.335c22.166 18.145 43.734 37.038 66.794 54.283 15.88 11.846 33.85 20.993 53.47 33.14 0-3.449 0-1.35 0 0-21.71 25.941-21.26 25.342 5.85 44.985 12.39 8.049 23.28 18.197 32.2 29.991 1.74 4.371 2.43 9.093 2.02 13.782-.42 4.689-1.93 9.214-4.42 13.209-10.29 12.665-21.55 24.498-33.7 35.389zm-224.661-56.232h3.146c-2.097-34.489 2.846-71.228-7.938-102.568-15.053-40.172-36.167-77.797-62.606-111.564-25.442-36.298-56.307-68.463-91.513-95.37-50.623-36.288-112.181-46.335-174.038-47.985-10.642-1.114-21.319 1.772-29.955 8.098-21.717 24.142-47.928 47.835-59.91 76.775-22.672 60.208-23.626 126.454-2.696 187.291 6.59 21.143 17.224 40.937 24.863 61.78 31.602 85.923 72.341 164.948 140.938 229.277 52.421 49.335 109.036 44.986 168.796 29.991 16.146-4.078 30.033-14.371 38.642-28.641 24.114-51.884 54.069-102.418 53.919-162.398 0-14.996-1.198-29.841-1.947-44.686zm-401.396 40.037c-5.542 20.393-9.735 35.989-14.079 51.434-2.683 12.744-9.082 24.405-18.386 33.507-9.305 9.102-21.097 15.236-33.885 17.626-36.545 5.699-53.17 29.991-67.698 58.482-16.925 32.839-31.902 67.028-49.426 99.567-10.934 20.39-25.162 38.99-38.043 58.33l2.696 5.55c44.932-14.99 91.512-26.99 134.797-45.88 52.721-22.95 74.888-71.982 80.729-125.065 3.744-35.838 8.238-67.928 36.245-92.97zm721.017 171.246c-26.21-21.893-49.43-43.937-74.89-62.081-18.51-14.591-40.06-24.839-63.05-29.99-52.874-7.348-106.494-8.547-159.963-11.547-16.925-.899-18.572 8.548-8.987 20.094 14.458 18.78 30.439 36.334 47.779 52.483 48.676 41.087 109.031 54.133 169.541 66.879 16.76 3.783 34.26 2.381 50.2-4.019 15.94-6.399 29.57-17.496 39.07-31.819zm-763.853-492.894c2.853-13.954 3.661-28.249 2.397-42.436-28.308-98.219-142.436-209.933-256.714-211.283 2.693 11.977 6.764 23.601 12.132 34.639 23.664 35.539 47.179 71.527 73.988 104.967 14.198 14.497 30.761 26.465 48.977 35.388 25.761 14.996 53.17 28.641 78.931 44.986 14.38 10.241 27.995 21.518 40.739 33.739zm-302.095-80.974c2.121 5.348 4.941 10.39 8.387 14.995 35.047 32.24 67.399 68.678 106.64 95.07 46.515 28.959 99.954 44.86 154.717 46.035 6.141 0 17.823-5.698 18.273-9.746 3.092-14.45 2.265-29.465-2.397-43.487-5.991-12.146-21.867-19.044-32.95-28.641-27.11-23.692-54.369-43.786-94.059-42.886-43.435.9-87.169-2.399-126.56-26.242-10.181-3.433-20.859-5.156-31.602-5.098zm679.977 955.798 10.934-1.8c5.368-17.06 9.867-34.37 13.479-51.88 6.441-37.19 11.983-74.98 16.026-112.17 1.412-13.8-.067-27.74-4.343-40.94-9.585-28.94-21.717-56.98-32.801-85.47-14.977-40.786-14.977-40.786-58.861-34.338-1.498 0-4.044 0-4.793 0-4.493 5.248-12.881 11.246-12.431 16.195 2.995 27.593 5.092 54.883 29.955 75.873 11.594 11.22 18.454 26.46 19.171 42.59-1.719 24.38-5.578 48.57-11.533 72.28-1.797 9.44-7.788 20.54-4.793 28.19 11.833 31.34 26.66 61.18 40.44 91.47zm-662.004-754.862c2.119 2.657 4.475 5.117 7.039 7.348 41.758 29.672 89.34 50.118 139.59 59.981 44.933 8.847 81.627 7.497 114.428-29.091 4.658-5.523 7.698-12.229 8.782-19.375 1.084-7.147.17-14.454-2.641-21.112-1.049-4.649-14.978-6.748-23.215-9.747-8.238-2.999-20.07-7.048-29.955-10.197-39.391-11.996-78.632-25.642-119.82-9.897-31.003 11.247-61.408 20.244-94.208 32.09zm214.777 622.002 3.145 2.85c5.811-2.95 11.816-5.51 17.973-7.65 86.57-27.14 130.604-91.92 149.775-174.843 7.105-38.858 9.719-78.406 7.788-117.862 0-13.946-11.982-27.891-18.422-41.837l-7.938 1.95c-3.981 10.395-6.989 21.138-8.987 32.089-5.329 63.693-32.533 123.57-76.984 169.443-7.608 10.6-12.961 22.64-15.726 35.39-4.092 17.45-9.397 34.58-15.877 51.29-10.298 17.26-21.915 33.71-34.747 49.18zm-121.318-372.631c28.607 8.097 48.827 13.346 68.897 19.644 16.475 5.098 32.201 13.345 48.976 16.944 16.691 3.866 34.221 1.409 49.21-6.898 14.99-8.306 26.377-21.874 31.968-38.088 8.286-21.313 15.484-43.034 21.567-65.079 1.093-4.853 1.005-9.897-.257-14.708-1.262-4.812-3.66-9.249-6.993-12.939-3.332-3.689-7.502-6.522-12.157-8.261s-9.659-2.332-14.591-1.73c-21.016 4.183-41.237 11.673-59.91 22.193-42.087 27.741-82.826 58.032-126.71 88.922zm258.811-453.606c-25.911-44.986-52.421-86.072-72.191-129.259-24.414-53.233-55.417-97.019-113.979-115.013 0 0-1.348-.9-2.097-1.05l-20.369-3.299c-1.199 8.248-5.692 17.844-2.846 24.442 7.432 15.483 15.784 30.505 25.012 44.986 12.132 21.743 19.471 48.585 36.995 64.33 35.455 31.021 63.591 69.535 82.376 112.764 9.585 22.343 24.114 22.643 41.637 16.794 9.013-3.923 17.554-8.853 25.462-14.695zm221.667 902.867c14.448-30.63 27.101-62.07 37.893-94.17 3.117-16.74.588-34.05-7.189-49.19-17.075-35.39-40.44-67.78-56.615-103.62-8.388-18.44-18.423-22.338-39.99-21.439 5.841 92.219 1.647 185.039 65.901 268.419zm202.645-894.47c-4.643-6.897-9.286-19.793-13.929-19.793-55.866 0-108.287 9.897-146.18 56.832-8.687 10.796-7.489 17.244 1.947 26.991 16.51 16.962 32.061 34.834 46.58 53.533 8.687 11.096 15.726 17.844 29.955 8.097 43.884-30.14 80.279-64.329 81.627-125.66zm-25.012 324.647c-6.291 32.09-2.397 41.537 27.558 59.081 17.074 10.047 34.299 20.244 52.122 28.641 24.364 9.653 51.495 9.591 75.815-.171s43.98-28.482 54.94-52.312c.71-2.913.76-5.95.13-8.884-.62-2.933-1.89-5.689-3.73-8.061-19.77-22.493-42.08-25.042-70.09-13.195-13.66 5.84-28.454 8.506-43.286 7.797-30.254-2.399-60.209-8.247-93.459-12.896zm-370.094-657.0908c-34.298 66.7287-19.62 272.1638 21.268 298.8548 37.594-143.954 43.884-235.1251-21.268-298.8548zm45.981 891.3168c-2.396 49.334-8.238 93.117-32.501 132.257-2.247 3.6 2.546 13.2 6.29 18.44 24.164 33.29 48.677 66.33 73.54 99.12 7.039 9.3 14.977 17.85 22.766 26.69l6.14-2.84c-1.048-16.8-1.198-33.59-3.295-50.09-4.343-34.19-12.88-68.08-13.929-102.27.411-23.44-4.721-46.653-14.976-67.736-10.256-21.082-25.344-39.439-44.035-53.571zm289.365-19.644-9.586 2.699c0 14.995-5.392 33.889.899 45.885 19.828 37.717 42.353 73.947 67.399 108.417 25.003 33.04 57.57 59.57 94.961 77.37-12.735-107.51-84.028-170.641-153.673-234.821zm-423.414-220.28c-4.792-23.992-12.431-35.989-34.897-26.991-5.605 1.216-11.348 1.67-17.074 1.349-40.14 4.049-80.729 5.998-119.82 13.046-33.1 5.848-59.91 26.242-92.112 51.584 25.572 9.065 51.684 16.527 78.183 22.342 16.078 3.373 32.829.985 47.328-6.747 40.739-30.141 81.179-59.232 138.392-54.583zm196.355-551.825c-7.488 50.085-15.876 99.119-22.017 148.453-2.517 17.761-1.55 35.843 2.846 53.233 6.44 22.043 33.25 29.091 44.932 13.046 12.112-15.464 20.469-33.533 24.414-52.783 7.189-61.93-15.277-115.463-50.175-162.248zm427.012 518.086c-19.18-13.796-35.5-25.792-51.98-37.338-20.215-13.946-40.734-31.64-67.244-20.394-18.47 9.89-36.103 21.275-52.721 34.039 5.392 10.497 8.537 28.791 17.823 32.84 27.491 12.738 56.714 21.328 86.719 25.492 13.323.716 26.603-2.145 38.453-8.288 11.84-6.143 21.84-15.344 28.95-26.651zm-797.854-276.962 2.396-6.298c-20.077-20.374-38.042-42.731-53.619-66.729-20.22-38.238-57.064-37.488-89.865-46.035-11.533-3.149-31.7524 3.149-23.8143 17.694 14.2503 27.896 33.7843 52.75 57.5133 73.177 17.823 13.945 46.131 14.995 69.795 21.443 12.282 2.549 25.162 4.498 37.594 6.748zm547.726 598.46c18.739 17.482 33.849 38.492 44.463 61.832 10.615 23.34 16.526 48.54 17.394 74.17-.175 5.71 1.565 11.3 4.943 15.9 32.751 32.29 66.051 64.13 99.9 95.52 2.995 2.85 10.334 1.2 14.977 1.65 0-5.85 1.947-13.65-.899-17.1-33.999-39.73-49.875-91.32-88.816-128.81-24.114-23.24-37.594-57.28-55.567-86.668-6.44-10.347-11.682-21.293-18.422-33.739zm-81.477-572.668c71.143-61.931 50.324-96.42 31.902-147.703-20.783 12.025-40.391 25.983-58.562 41.686-28.308 29.841-13.33 87.422 26.66 106.017zm-144.084 922.66c9.287-25.95 17.824-52.04 28.008-77.53 4.14-9.24 5.254-19.55 3.182-29.46-2.072-9.92-7.222-18.92-14.714-25.72-17.737-22.62-34.141-46.25-49.126-70.78-8.538 74.38 10.783 137.51 32.65 203.04zm245.331-805.398c14.229 21.443 27.859 43.786 43.735 64.63 2.868 2.502 6.328 4.229 10.05 5.017 3.722.787 7.584.609 11.218-.519 16.895-11.668 32.598-24.978 46.879-39.737 1.842-3.164 2.813-6.76 2.813-10.422s-.971-7.258-2.813-10.421c-35.796-39.738-61.707-50.834-111.882-8.998zm-36.395-170.046c17.023-5.284 34.388-9.392 51.972-12.296 18.273-1.949 25.462-11.396 23.964-27.291-2.396-27.291-6.89-54.283-10.484-81.274-20.519 12.446-38.492 22.193-54.968 33.889-6.953 5.056-11.635 12.653-13.03 21.143-.749 21.893 1.648 43.636 2.546 65.829zm-293.109-16.494c-11.383-97.769-58.712-176.344-126.41-244.1228 27.858 88.4718 76.984 166.5968 126.56 244.1228zm-186.17 530.531c-62.456-38.688-124.164-35.989-197.104 6.298 68.897 45.585 132.102-5.998 197.104-6.298zm701.242 110.965c17.83 29.99 14.98 65.982 52.57 74.972 4.65 1.2 7.49 8.4 11.54 12.45 10.78 11.55 21.71 22.79 32.65 34.19l9.13-3.9c-6.59-27.14-12.58-54.58-20.07-81.57-.97-3.504-2.65-6.763-4.95-9.577-2.29-2.813-5.14-5.119-8.38-6.772-22.16-7.197-45.08-12.296-72.64-19.793zm-324.858 426.012c44.932-63.43 12.282-149.95-28.757-166.14 7.489 55.33.45 112.61 28.607 166.14zm261.357-899.712c19.92-21.593 48.228-34.639 52.421-66.878-73.539-21.594-68.147-27.142-99.151 31.939zm-834.545-8.547c23.215 12.296 44.932 23.842 66.5 35.089 1.797.899 4.793 0 7.189-1.2l63.205-20.393c-59.91-43.486-89.865-46.036-136.894-13.496zm619.918-274.413 5.242-1.649c-3.335-13.766-8.366-27.064-14.978-39.588-3.205-3.909-7.297-6.996-11.933-9.004-4.637-2.008-9.686-2.88-14.727-2.542-3.534.351-6.917 1.615-9.818 3.669-2.9 2.053-5.219 4.824-6.728 8.043-1.51 3.22-2.159 6.776-1.884 10.322.275 3.545 1.465 6.959 3.453 9.906 7.189 16.195 6.74 35.539 12.282 52.483 2.546 8.248 12.431 21.293 16.774 20.394 12.881-2.55 27.709-7.948 23.515-27.592-.918-8.063-1.318-16.177-1.198-24.292zm-477.333 430.063c-26.959-11.246-52.121-20.843-76.385-32.239-38.492-17.845-38.342-18.294-67.398 8.997-1.42 2.131-2.53 4.454-3.296 6.898 47.779 10.646 91.213 46.635 147.079 16.344zm614.826 518.239c-10.484 64.03-2.995 119.96 35.946 131.35-5.092-45.58 11.982-95.51-35.946-131.35zm-564.052-273.516c-38.792 10.646-85.971 111.714-67.399 164.946 22.616-55.481 45.083-110.514 67.399-164.946zm-16.176-682.283c0-7.948 1.498-9.897.899-10.947-10.334-15.895-20.669-31.79-31.153-47.685-15.876-24.442-41.637-26.391-63.804-4.198 15.876 43.186 66.65 30.89 94.058 62.83zm-274.0876 179.942 1.1983 13.796 107.9873 16.195 3.445-8.997c-11.383-13.046-22.316-36.889-33.9988-37.338-26.0608-.3-52.4212 10.646-78.6318 16.794zm501.7456 710.327c-39.091 25.49-48.078 58.93-24.413 91.77 30.254-11.85 42.536-57.88 24.413-91.32zm83.275-928.207h-5.692c-9.136 52.333-19.171 104.966-27.109 157-2.696 17.994 11.683 14.995 23.066 13.645-2.972-13.338-4.429-26.97-4.344-40.637 3.894-35.089 10.484-70.027 14.978-104.966.4-8.208.1-16.436-.899-24.592zm354.966 786.799 59.914 109.618c2.24-58.93-25.466-106.619-59.914-109.168zm74.884-154.75c-54.515 6.148-94.205-28.191-138.089-51.884-7.189 35.539 76.685 67.779 137.489 52.334zm-840.982-6.148c28.008 23.242 22.466 14.995 59.011-25.942-27.408-10.197-44.033 2.249-59.011 25.942zm196.804 288.506-12.731-7.2-42.985 77.98 12.431 6.75zm87.768-910.359 6.74-2.549c-1.143-14.609-3.702-29.072-7.638-43.186-1.948-5.248-13.93-6.748-21.269-10.047-1.198 8.397-6.14 18.744-2.995 24.892 7.136 11.258 15.583 21.627 25.162 30.89zm570.49 1008.729-57.96-22.79c18.12 37.34 30.4 42.58 58.26 22.79zm0-376.38 39.39 18.444c-8.83-30.29-13.93-32.539-39.39-18.444z" fill="#f5f5f5"/></svg>